<svg width="535" height="621" viewBox="0 0 535 621" fill="none" xmlns="http://www.w3.org/2000/svg">
<path d="M133.004 621C187.218 621 231.167 611.083 231.167 598.85C231.167 586.617 187.218 576.7 133.004 576.7C78.7894 576.7 34.8401 586.617 34.8401 598.85C34.8401 611.083 78.7894 621 133.004 621Z" fill="#613488"/>
<path d="M231.313 287.66C276.711 287.66 313.513 279.138 313.513 268.626C313.513 258.114 276.711 249.592 231.313 249.592C185.916 249.592 149.114 258.114 149.114 268.626C149.114 279.138 185.916 287.66 231.313 287.66Z" fill="#613488"/>
<path d="M406.633 518.18C474.73 518.18 529.933 505.519 529.933 489.901C529.933 474.283 474.73 461.623 406.633 461.623C338.537 461.623 283.334 474.283 283.334 489.901C283.334 505.519 338.537 518.18 406.633 518.18Z" fill="#613488"/>
<g clip-path="url(#clip0)">
<path d="M242.081 464.38C235.721 472.169 221.128 489.157 223.845 496.232C226.028 501.695 221.993 507.631 216.125 507.631C205.599 507.631 201.744 494.336 200.29 489.307C198.892 491.318 197.411 492.674 195.92 493.687C193.62 496.609 192.645 509.724 192.273 513.834C190.915 528.887 189.389 547.552 177.545 556.908C168.782 571.917 159.143 590.756 133 590.756C107.813 590.756 97.4848 572.687 89.9412 559.491C89.4321 558.602 88.9437 557.745 88.4554 556.908C80.4385 550.575 77.2621 540.095 75.5866 529.971C73.4534 517.048 73.1999 497.651 70.0796 493.687C68.5885 492.674 67.1079 491.318 65.7103 489.307C64.2556 494.336 60.4007 507.631 49.875 507.631C44.0142 507.631 39.9686 501.703 42.1548 496.232C44.7161 489.832 33.1825 475.721 23.9192 464.38C12.157 449.989 0 435.11 0 420.35C0 395.892 41.8898 364.426 61.8866 351.091C73.202 343.553 83.0471 341.428 91.157 344.789C94.3936 346.129 96.8302 348.13 98.6538 350.26C109.185 345.537 122.563 345.537 133 345.537C143.437 345.537 156.815 345.537 167.346 350.26C169.17 348.13 171.606 346.129 174.843 344.789C184.585 340.753 195.379 345.248 204.113 351.091C224.188 364.478 266 395.92 266 420.35C266 435.11 253.843 449.989 242.081 464.38Z" fill="#818182"/>
<path d="M242.081 464.38C233.015 475.482 221.772 489.234 223.7 495.812C211.034 479.14 220.307 450.192 224.437 417.129C227.877 389.609 208.545 359.248 201.776 349.595C202.55 350.068 203.329 350.566 204.113 351.091C224.188 364.478 266 395.92 266 420.35C266 435.11 253.843 449.989 242.081 464.38Z" fill="#999999"/>
<path d="M23.9192 464.38C32.985 475.482 44.2277 489.234 42.3002 495.812C54.9664 479.14 45.6928 450.192 41.5625 417.129C38.1232 389.609 57.455 359.248 64.2245 349.595C63.4504 350.068 62.6711 350.566 61.8866 351.091C41.8119 364.478 0 395.92 0 420.35C0 435.11 12.157 449.989 23.9192 464.38Z" fill="#999999"/>
<path d="M178.719 475.316C182.875 454.535 170.406 454.535 166.25 446.222C162.094 437.91 191.187 429.597 182.875 412.972C174.562 396.347 157.584 392.544 145.469 404.66C141.312 408.816 145.469 425.441 145.469 425.441C145.469 425.441 141.312 421.285 133 421.285C124.688 421.285 120.531 425.441 120.531 425.441C120.531 425.441 124.688 408.816 120.531 404.66C108.416 392.544 91.4375 396.347 83.125 412.972C74.8125 429.597 103.906 437.91 99.75 446.222C95.5938 454.535 83.125 454.535 87.2813 475.316C90.1023 489.411 81.4469 514.977 75.5866 529.971C77.26 540.083 80.4338 550.572 88.4554 556.908C97.2183 571.917 106.857 590.756 133 590.756C158.187 590.756 168.515 572.687 176.059 559.491C176.568 558.602 177.056 557.745 177.545 556.908C185.561 550.575 188.738 540.095 190.413 529.971C184.553 514.977 175.898 489.411 178.719 475.316Z" fill="#999999"/>
<path d="M155.932 546.31C151.755 550.638 144.747 553.35 133 553.35C121.253 553.35 114.245 550.638 110.068 546.31C118.926 530.838 123.602 496.186 133 499.318C142.398 496.186 147.074 530.838 155.932 546.31Z" fill="#FFA4B8"/>
<path d="M162.094 466.068C162.094 482.273 144.606 489.307 134.273 490.912C129.048 491.687 103.906 484.182 103.906 466.068C103.906 452.16 111.993 450.385 114.655 447.724C123.369 439.01 142.619 438.998 151.345 447.724C153.996 450.375 162.094 452.168 162.094 466.068Z" fill="#818182"/>
<path d="M95.5938 424.508C100.185 424.508 103.906 420.786 103.906 416.196C103.906 411.605 100.185 407.883 95.5938 407.883C91.0029 407.883 87.2812 411.605 87.2812 416.196C87.2812 420.786 91.0029 424.508 95.5938 424.508Z" fill="black"/>
<path d="M266 420.352C266 395.922 224.206 364.489 204.111 351.092C192.799 343.551 182.953 341.429 174.846 344.788C171.603 346.131 169.169 348.135 167.346 350.269C156.811 345.545 143.44 345.539 133 345.539C122.56 345.539 109.189 345.545 98.6543 350.269C96.8313 348.134 94.3968 346.131 91.1544 344.788C83.0476 341.43 73.2009 343.551 61.8892 351.092C41.7921 364.49 0 395.922 0 420.352C0 435.112 12.1581 449.991 23.9166 464.379C33.1835 475.72 44.7171 489.833 42.1568 496.233C39.9764 501.685 43.996 507.633 49.8745 507.633C60.3986 507.633 64.2577 494.333 65.7129 489.307C67.1068 491.317 68.5875 492.673 70.0775 493.685C72.3837 496.552 73.3801 510.027 73.7241 513.832C75.0868 528.91 76.6189 547.56 88.4471 556.897C97.3695 572.294 107.096 590.758 132.999 590.758C158.185 590.758 168.516 572.685 176.06 559.489C176.571 558.595 177.063 557.739 177.551 556.897C189.379 547.56 190.912 528.914 192.274 513.832C192.617 510.038 193.614 496.554 195.921 493.685C197.411 492.672 198.892 491.317 200.286 489.307C201.741 494.333 205.6 507.633 216.124 507.633C221.995 507.633 226.025 501.692 223.842 496.233C221.281 489.833 232.815 475.719 242.082 464.379C253.842 449.991 266 435.112 266 420.352ZM133.137 474.197C127.63 472.751 120.531 469.179 120.531 466.071C120.531 464.855 120.628 464.17 120.697 463.833C121.855 463.015 124.09 461.799 126.409 459.48C127.258 458.631 130.449 457.799 133 457.759C135.55 457.799 138.742 458.63 139.591 459.48C141.911 461.8 144.146 463.015 145.303 463.833C145.373 464.17 145.469 464.855 145.469 466.071C145.469 470.268 137.466 473.189 133.137 474.197ZM133 508.841C136.675 516.12 140.755 532.46 145.295 543.355C139.046 545.618 126.955 545.618 120.704 543.355C125.291 532.349 129.291 516.188 133 508.841ZM133 574.133C121.561 574.133 115.419 568.741 109.334 559.467C110.137 558.944 110.943 558.323 111.748 557.588C122.94 563.065 143.052 563.069 154.252 557.588C155.056 558.323 155.862 558.944 156.666 559.467C150.581 568.741 144.439 574.133 133 574.133ZM213.829 474.294C210.791 458.436 207.938 431.234 207.812 412.033C207.812 411.151 207.672 410.303 207.417 409.506C206.547 395.815 204.327 372.525 191.668 367.281C187.412 365.518 180.689 365.063 172.841 372.911C169.595 376.157 169.595 381.421 172.841 384.667C176.087 387.913 181.351 387.913 184.597 384.667C185.021 384.243 185.388 383.911 185.7 383.653C190.928 393.289 191.14 419.657 191.199 420.789C191.353 423.716 192.364 433.732 191.57 451.409C190.524 474.695 186.903 479.505 186.441 480.027C178.125 485.697 177.009 498.048 175.717 512.336C174.46 526.259 173.041 541.976 165.117 545.009C164.715 544.587 164.077 543.791 163.244 542.356C154.725 526.671 151.975 500.762 141.313 493.159V489.205C151.038 486.036 162.094 478.954 162.094 466.07C162.094 452.164 154.02 450.395 151.347 447.724C142.638 439.015 123.383 438.995 114.654 447.724C111.989 450.387 103.906 452.162 103.906 466.071C103.906 477.597 113.588 485.01 124.688 488.941V493.16C118.361 497.671 115.043 508.058 110.931 520.945C109.181 526.43 104.792 540.905 100.884 545.009C92.9597 541.976 91.5409 526.26 90.2831 512.336C88.9921 498.048 87.8756 485.696 79.56 480.027C79.0976 479.505 75.477 474.694 74.4306 451.409C73.4664 429.947 74.8125 424.454 74.8125 420.352C74.8125 411.52 76.102 391.393 80.3003 383.653C80.612 383.912 80.9799 384.243 81.4038 384.667C84.6498 387.913 89.9132 387.913 93.1592 384.667C96.4058 381.421 96.4058 376.157 93.1592 372.911C85.3122 365.063 78.5905 365.518 74.333 367.281C61.6741 372.524 59.4505 395.81 58.5808 409.551C57.4373 413.139 59.0084 422.242 55.2319 453.882C54.2115 462.432 53.1657 469.1 52.1708 474.294C40.9827 456.289 16.625 433.939 16.625 420.352C16.625 409.461 40.0491 385.633 71.1108 364.925C78.177 360.215 82.7852 359.359 84.7433 360.128C86.7524 360.917 87.3618 363.812 87.4433 363.795C88.7427 370.32 96.8017 372.712 101.471 368.042C107.349 362.164 122.785 362.164 133 362.164C142.607 362.164 158.328 361.999 164.614 368.119C169.261 372.648 177.149 370.314 178.526 363.919C178.793 362.684 179.861 360.705 181.208 360.147C183.15 359.343 187.765 360.175 194.889 364.925C225.951 385.633 249.375 409.461 249.375 420.352C249.375 433.908 224.98 456.35 213.829 474.294Z" fill="black"/>
<path d="M170.406 424.508C174.997 424.508 178.719 420.786 178.719 416.196C178.719 411.605 174.997 407.883 170.406 407.883C165.815 407.883 162.094 411.605 162.094 416.196C162.094 420.786 165.815 424.508 170.406 424.508Z" fill="black"/>
</g>
<g clip-path="url(#clip1)">
<path fill-rule="evenodd" clip-rule="evenodd" d="M369.321 300.384C368.434 298.13 367.363 295.938 366.087 293.831C348.765 265.253 299.949 263.162 299.949 263.162C299.949 263.162 279.217 307.406 296.539 335.985C301.619 344.366 309.408 350.469 317.879 354.909" fill="#E5AE8C"/>
<path fill-rule="evenodd" clip-rule="evenodd" d="M349.944 312.165C349.345 309.671 348.452 307.346 347.2 305.279C343.207 298.692 333.996 292.999 321.264 289.25C319.019 288.589 316.822 288.034 314.737 287.569C311.595 299.38 309.537 314.821 315.426 324.538C317.878 328.583 322.298 332.291 328.293 335.418" fill="#FFDEDE"/>
<path fill-rule="evenodd" clip-rule="evenodd" d="M495.121 354.909C503.593 350.468 511.381 344.365 516.462 335.984C533.783 307.406 513.051 263.162 513.051 263.162C513.051 263.162 464.235 265.252 446.914 293.831C445.637 295.938 444.567 298.13 443.68 300.383" fill="#E5AE8C"/>
<path fill-rule="evenodd" clip-rule="evenodd" d="M484.708 335.417C490.702 332.29 495.123 328.582 497.575 324.537C501.568 317.949 502.353 307.15 499.785 294.128C499.333 291.833 498.809 289.631 498.258 287.569C496.175 288.034 493.98 288.589 491.736 289.249C479.004 292.998 469.794 298.691 465.801 305.278C464.617 307.232 463.715 309.555 463.099 312.198" fill="#FFDEDE"/>
<path fill-rule="evenodd" clip-rule="evenodd" d="M501.55 393.585C501.55 446.019 458.995 467.839 406.5 467.839C354.005 467.839 311.45 446.019 311.45 393.585C311.45 341.151 354.005 293.501 406.5 293.501C458.995 293.501 501.55 341.15 501.55 393.585Z" fill="#FFD4B5"/>
<path fill-rule="evenodd" clip-rule="evenodd" d="M403.401 414.247L391.703 401.596C389.204 398.893 391.121 394.509 394.802 394.509H418.198C421.879 394.509 423.797 398.893 421.297 401.596L409.6 414.247C407.929 416.055 405.072 416.055 403.401 414.247Z" fill="#FFBDBC"/>
<path d="M386.336 395.028C384.842 398.444 385.487 402.266 388.018 405.004L399.715 417.655H399.716C400.243 418.225 400.837 418.722 401.481 419.137V425.127C401.481 428.309 398.893 430.898 395.712 430.898C392.531 430.898 389.943 428.309 389.943 425.127C389.943 422.354 387.696 420.107 384.924 420.107C382.151 420.107 379.904 422.354 379.904 425.127C379.904 433.844 386.995 440.937 395.712 440.937C399.879 440.937 403.673 439.316 406.5 436.672C409.327 439.316 413.122 440.937 417.289 440.937C426.005 440.937 433.097 433.844 433.097 425.127C433.097 422.354 430.849 420.107 428.077 420.107C425.305 420.107 423.058 422.354 423.058 425.127C423.058 428.309 420.47 430.898 417.289 430.898C414.108 430.898 411.52 428.309 411.52 425.127V419.137C412.163 418.721 412.758 418.225 413.285 417.654L424.983 405.003C427.514 402.265 428.158 398.443 426.665 395.027C425.193 391.663 421.87 389.489 418.198 389.489H394.803C391.131 389.49 387.807 391.664 386.336 395.028ZM416.372 399.529L406.613 410.083C406.575 410.082 406.537 410.082 406.5 410.082C406.462 410.082 406.424 410.082 406.387 410.083L396.628 399.529H416.372Z" fill="black"/>
<path d="M531.261 441.393L497.053 432.358C497.574 431.449 498.073 430.526 498.551 429.591C503.594 419.716 506.28 408.319 506.547 395.687L530.25 386.793C532.845 385.819 534.159 382.926 533.186 380.33C532.212 377.734 529.318 376.42 526.723 377.394L506.212 385.09C505.435 375.842 503.401 366.661 500.21 357.838C509.264 352.621 516.166 346.155 520.754 338.586C539.256 308.061 518.489 262.938 517.596 261.032C516.738 259.198 514.862 258.061 512.837 258.147C510.734 258.237 461.123 260.703 442.621 291.229C441.88 292.452 441.187 293.726 440.548 295.039C437.387 293.781 434.168 292.697 430.904 291.796C428.232 291.057 425.468 292.626 424.73 295.298C423.992 297.97 425.56 300.735 428.233 301.473C466.305 311.987 494.335 348.239 496.408 388.769L454.77 404.392C452.175 405.366 450.86 408.259 451.834 410.855C452.59 412.87 454.502 414.113 456.534 414.113C457.12 414.113 457.716 414.009 458.297 413.791L496.334 399.519C495.502 411.775 492.084 421.687 486.971 429.696L456.322 421.602C453.642 420.894 450.895 422.493 450.187 425.173C449.48 427.853 451.078 430.6 453.759 431.308L480.203 438.291C459.656 459.723 424.84 462.819 406.5 462.819C388.16 462.819 353.344 459.722 332.797 438.291L359.241 431.308C361.921 430.6 363.52 427.853 362.812 425.173C362.104 422.493 359.359 420.893 356.677 421.602L326.029 429.696C320.916 421.686 317.498 411.775 316.666 399.519L354.703 413.791C355.283 414.009 355.879 414.113 356.466 414.113C358.497 414.113 360.41 412.869 361.166 410.855C362.14 408.259 360.825 405.366 358.229 404.392L316.592 388.769C318.665 348.193 346.734 311.929 384.859 301.448C387.532 300.713 389.104 297.95 388.368 295.277C387.634 292.605 384.871 291.031 382.198 291.768C378.899 292.675 375.646 293.769 372.451 295.04C371.813 293.727 371.12 292.453 370.378 291.23C351.877 260.703 302.267 258.237 300.164 258.147C298.144 258.056 296.263 259.198 295.404 261.032C294.511 262.938 273.744 308.061 292.246 338.586C296.834 346.155 303.736 352.621 312.79 357.838C309.598 366.661 307.565 375.841 306.788 385.09L286.277 377.394C283.682 376.42 280.788 377.734 279.814 380.33C278.84 382.926 280.155 385.819 282.75 386.793L306.453 395.687C306.72 408.319 309.406 419.715 314.449 429.591C314.927 430.527 315.426 431.449 315.947 432.358L281.739 441.393C279.059 442.1 277.46 444.847 278.168 447.527C278.762 449.778 280.794 451.266 283.017 451.266C283.442 451.266 283.873 451.212 284.302 451.099L321.974 441.15C326.031 446.148 330.859 450.611 336.416 454.491C353.627 466.507 377.862 472.859 406.5 472.859C435.139 472.859 459.373 466.507 476.584 454.491C482.141 450.611 486.969 446.148 491.026 441.15L528.698 451.099C529.128 451.212 529.558 451.266 529.983 451.266C532.206 451.266 534.239 449.778 534.833 447.527C535.54 444.846 533.941 442.1 531.261 441.393ZM451.206 296.432C464.39 274.68 498.847 269.551 509.844 268.452C513.959 278.712 525.354 311.63 512.169 333.382C508.655 339.179 503.335 344.244 496.324 348.476C494.614 344.841 492.7 341.29 490.59 337.845C495.679 334.694 499.464 331.103 501.866 327.139C506.577 319.367 507.56 307.617 504.709 293.159C504.268 290.916 503.729 288.599 503.107 286.273C502.412 283.673 499.791 282.083 497.164 282.67C494.824 283.193 492.52 283.787 490.318 284.435C476.181 288.598 466.219 294.905 461.508 302.677C460.974 303.558 460.487 304.498 460.047 305.491C456.7 303.188 453.234 301.097 449.673 299.232C450.149 298.267 450.661 297.332 451.206 296.432ZM468.377 311.868C468.833 310.348 469.408 309.012 470.093 307.88C473.387 302.445 481.792 297.41 493.153 294.065C493.618 293.928 494.089 293.794 494.564 293.662C494.667 294.144 494.766 294.624 494.86 295.099C497.151 306.719 496.575 316.5 493.281 321.935C491.676 324.583 488.823 327.177 484.951 329.525C480.046 322.958 474.469 317.036 468.377 311.868ZM328.049 329.525C324.177 327.177 321.324 324.583 319.719 321.935C316.162 316.066 315.729 306.134 318.428 293.66C318.906 293.792 319.379 293.927 319.846 294.065C331.208 297.411 339.613 302.446 342.907 307.88C343.608 309.036 344.192 310.364 344.653 311.843C338.549 317.016 332.962 322.947 328.049 329.525ZM300.831 333.383C287.645 311.627 299.045 278.701 303.158 268.448C314.15 269.533 348.577 274.626 361.794 296.432C362.339 297.332 362.851 298.267 363.328 299.232C359.769 301.095 356.307 303.184 352.963 305.485C352.52 304.501 352.029 303.563 351.492 302.677C346.781 294.905 336.819 288.597 322.682 284.434C320.481 283.786 318.176 283.192 315.831 282.668C313.203 282.082 310.579 283.674 309.887 286.276C306.614 298.578 304.173 315.653 311.134 327.138C313.537 331.102 317.322 334.693 322.411 337.845C320.3 341.289 318.386 344.841 316.677 348.475C309.664 344.244 304.344 339.179 300.831 333.383Z" fill="black"/>
<path d="M406.5 298.52C404.367 298.52 402.442 297.121 401.75 295.112C401.061 293.11 401.762 290.804 403.445 289.52C405.069 288.28 407.325 288.159 409.079 289.2C410.864 290.26 411.824 292.405 411.429 294.442C410.977 296.774 408.882 298.52 406.5 298.52Z" fill="black"/>
<path d="M436.067 374.319C441.921 368.465 451.448 368.466 457.304 374.321C459.264 376.281 459.264 379.459 457.304 381.42C455.344 383.38 452.165 383.38 450.205 381.42C448.264 379.479 445.106 379.478 443.166 381.418C441.206 383.378 438.027 383.378 436.067 381.418C434.106 379.458 434.106 376.28 436.067 374.319Z" fill="black"/>
<path d="M377.045 374.32C379.005 376.28 379.005 379.458 377.045 381.418C375.085 383.378 371.907 383.378 369.947 381.418C368.006 379.478 364.848 379.479 362.907 381.42C360.947 383.38 357.769 383.38 355.809 381.42C353.848 379.46 353.848 376.281 355.809 374.321C361.664 368.466 371.19 368.465 377.045 374.32Z" fill="black"/>
</g>
<g clip-path="url(#clip2)">
<path d="M325.23 114.49C329.486 135.039 317.99 142.438 325.43 161.03C334.724 184.275 307.06 199.569 305.93 209.025C305.405 236.965 301.535 256 278 256C270.35 256 265.28 252.815 261.605 248.725C256.678 250.555 250.995 256 234 256C217.022 256 211.297 250.546 206.395 248.725C202.72 252.815 197.65 256 190 256C166.465 256 162.595 236.965 162.07 209.02C160.941 199.566 133.279 184.27 142.57 161.03C149.982 142.509 138.516 135.029 142.77 114.49C123.212 99.793 134 80.509 134 68C134 54.6295 128.209 23.211 142.535 7.925C147.465 2.665 154.01 0 162 0C188.777 0 202.24 41.045 207.855 66.99C227.265 63.125 240.345 63.0475 260.145 66.99C265.76 41.045 279.223 0 306 0C313.99 0 320.535 2.665 325.465 7.925C339.764 23.181 334 54.4385 334 68C334 80.5345 344.789 99.7925 325.23 114.49V114.49Z" fill="#C79A83"/>
<path d="M270.251 132C270.251 119.351 298.251 116 298.251 144C298.251 172 270.251 168 258.251 156C246.251 144 270.251 152 270.251 132Z" fill="#999999"/>
<path d="M254.25 100C254.25 100 242.25 116 250.25 128C258.25 140 270.25 96 254.25 100Z" fill="#E0B7A3"/>
<path d="M198 132C198 119.351 170 116 170 144C170 172 198 168 210 156C222 144 198 152 198 132Z" fill="#999999"/>
<path d="M180 160C187.732 160 194 153.732 194 146C194 138.268 187.732 132 180 132C172.269 132 166 138.268 166 146C166 153.732 172.269 160 180 160Z" fill="black"/>
<path d="M203.535 84.365C186.813 88.604 165.548 97.5115 159.57 113.75C157.875 118.334 152.494 120.356 148.18 117.975C127.315 106.39 130.375 90.345 132.605 78.63C134.304 69.7445 134.215 69.0355 133.56 58.92C132.5 42.575 131.04 20.19 142.535 7.925C147.465 2.665 154.01 0 162 0C176.19 0 188.175 11.35 197.63 33.73C205.665 52.745 209.1 73.075 209.465 75.33C210.13 79.425 207.555 83.345 203.535 84.365V84.365Z" fill="#EA8692"/>
<path d="M203.535 84.365C190.675 87.625 168.745 95.295 160.86 110.82C182 76 166.24 83.525 178 60C190 36 162 0 162 0C176.19 0 188.175 11.35 197.63 33.73C205.665 52.745 209.1 73.075 209.465 75.33C210.13 79.425 207.555 83.345 203.535 84.365V84.365Z" fill="#A07765"/>
<path d="M306 200C306 232.79 303.99 256 278 256C267 256 261.475 249.335 258.275 244.325C251.489 233.706 250.38 224 234 224C217.69 224 216.566 233.582 209.73 244.325C206.525 249.335 201 256 190 256C164.01 256 162 232.79 162 200C162 183.785 174.03 168.045 197.76 153.215C214.25 142.91 230.505 136.765 231.19 136.51C233 135.83 235 135.83 236.81 136.51C237.495 136.765 253.75 142.91 270.24 153.215C293.97 168.045 306 183.785 306 200V200Z" fill="#818182"/>
<path d="M288 160C295.732 160 302 153.732 302 146C302 138.268 295.732 132 288 132C280.269 132 274 138.268 274 146C274 153.732 280.269 160 288 160Z" fill="black"/>
<path d="M319.82 117.975C315.485 120.368 310.119 118.316 308.43 113.75C301.965 96.245 278.11 87.825 264.465 84.365C260.445 83.345 257.87 79.425 258.535 75.33C258.9 73.075 262.335 52.745 270.37 33.73C279.825 11.35 291.81 0 306 0C313.99 0 320.535 2.665 325.465 7.925C339.764 23.181 334 54.4385 334 68C334 81.4835 346.587 103.113 319.82 117.975V117.975Z" fill="#EA8692"/>
<path d="M264.465 84.365C277.325 87.625 299.255 95.295 307.14 110.82C286 76 301.76 83.525 290 60C278 36 306 0 306 0C291.81 0 279.825 11.35 270.37 33.73C262.335 52.745 258.9 73.075 258.535 75.33C257.87 79.425 260.445 83.345 264.465 84.365V84.365Z" fill="#A07765"/>
<path d="M265.325 248.015C257.687 248.309 254.642 256 234 256C213.322 256 210.318 248.309 202.675 248.015C196.514 247.778 192.923 240.928 196.24 235.715C201.74 227.139 207.315 208 234 208C260.697 208 266.279 227.168 271.76 235.715C275.071 240.918 271.5 247.778 265.325 248.015Z" fill="#C79A83"/>
<path d="M180 160C187.732 160 194 153.732 194 146C194 138.268 187.732 132 180 132C172.269 132 166 138.268 166 146C166 153.732 172.269 160 180 160Z" fill="black"/>
<path d="M288 160C295.732 160 302 153.732 302 146C302 138.268 295.732 132 288 132C280.269 132 274 138.268 274 146C274 153.732 280.269 160 288 160Z" fill="black"/>
<path d="M335.395 78.6295C333.702 69.7405 333.782 69.0435 334.441 58.9205C335.503 42.5755 336.959 20.1905 325.466 7.926C320.537 2.6665 313.988 0 306.001 0C279.161 0 265.721 41.239 260.148 66.9905C240.742 63.1255 227.653 63.047 207.854 66.9905C202.264 41.1625 188.848 0 162.001 0C154.013 0 147.464 2.6665 142.536 7.9255C131.043 20.19 132.498 42.575 133.561 58.92C134.222 69.0915 134.295 69.7645 132.606 78.629C130.59 89.21 127.904 103.321 142.771 114.489C138.428 135.415 150.104 142.202 142.573 161.029C133.292 184.231 160.857 199.505 162.073 209.021C162.594 236.966 166.464 256 190.001 256C197.651 256 202.719 252.817 206.395 248.725C211.285 250.532 216.966 256 234.001 256C251.036 256 256.716 250.532 261.607 248.725C265.283 252.817 270.35 256 278.001 256C301.537 256 305.407 236.968 305.928 209.024C307.147 199.489 334.712 184.237 325.428 161.029C317.863 142.116 329.593 135.509 325.23 114.49C340.097 103.322 337.411 89.21 335.395 78.6295V78.6295ZM148.323 81.624C150.343 71.0205 150.253 69.047 149.527 57.8825C148.753 45.985 147.459 26.0715 154.211 18.8665C155.364 17.636 157.426 16.0005 162.001 16.0005C175.433 16.0005 187.293 46.5725 192.369 70.8845C175.908 75.965 158.939 84.5285 149.366 98.84C145.886 94.434 146.839 89.4135 148.323 81.624V81.624ZM234.001 240C223.227 240 220.224 237.555 214.983 235.023C218.775 228.455 222.827 224 234.001 224C245.175 224 249.226 228.455 253.019 235.023C248.005 237.444 244.922 240 234.001 240ZM234.001 184C227.023 184 222.776 181.246 222.056 180C222.776 178.754 227.023 176 234.001 176C240.978 176 245.225 178.754 245.945 180C245.225 181.246 240.978 184 234.001 184ZM278.001 240C274.547 240 273.212 238.653 269.069 230.99C264.756 223.012 258.518 211.482 242.001 208.65V199.204C264.183 194.698 268.38 174.327 252.259 164.655C241.924 158.454 226.095 158.443 215.743 164.655C199.561 174.363 203.89 194.712 226.001 199.204V208.65C209.484 211.482 203.245 223.012 198.932 230.99C194.79 238.653 193.454 240 190.001 240C184.041 240 182.75 238.454 181.394 235.174C178.386 227.899 178.001 212.555 178.001 200C178.001 179.657 216.829 159.599 234.005 152.594C251.182 159.583 290.001 179.611 290.001 200C290.001 212.555 289.615 227.899 286.608 235.174C285.251 238.454 283.96 240 278.001 240V240ZM302.76 185.564C293.175 164.351 263.349 147.696 242.001 138.615V124C242.001 119.582 238.419 116 234.001 116C229.583 116 226.001 119.582 226.001 124V138.615C204.686 147.682 174.833 164.338 165.241 185.564C158.735 177.971 155.147 172.676 157.429 166.971C166.371 144.614 156.592 134.488 157.961 120.796C159.345 106.958 170.236 96.086 190.332 88.482C204.318 83.19 222.77 80 234.001 80C245.369 80 263.753 83.2165 277.67 88.482C297.766 96.086 308.657 106.958 310.041 120.796C311.409 134.478 301.634 144.624 310.573 166.971C312.855 172.676 309.266 177.971 302.76 185.564ZM275.632 70.884C280.709 46.572 292.568 16 306.001 16C310.576 16 312.638 17.6355 313.791 18.866C320.543 26.071 319.248 45.984 318.475 57.882C317.746 69.0815 317.664 71.0475 319.678 81.6235C321.162 89.413 322.115 94.4335 318.636 98.839C309.063 84.5295 292.097 75.9655 275.632 70.884V70.884Z" fill="black"/>
<path d="M214 100C214 100 226 116 218 128C210 140 198 96 214 100Z" fill="#E0B7A3"/>
</g>
<defs>
<clipPath id="clip0">
<rect width="266" height="266" fill="white" transform="translate(0 334)"/>
</clipPath>
<clipPath id="clip1">
<rect width="257" height="257" fill="white" transform="translate(278 237)"/>
</clipPath>
<clipPath id="clip2">
<rect width="256" height="256" fill="white" transform="translate(106)"/>
</clipPath>
</defs>
</svg>
