<svg width="240" height="74" viewBox="0 0 240 74" fill="none" xmlns="http://www.w3.org/2000/svg">
<path fill-rule="evenodd" clip-rule="evenodd" d="M105.488 22.7864C103.168 22.7864 100.414 23.2783 97.4059 26.7662V17.0051C97.4059 14.5392 95.4046 12.5333 92.9443 12.5333C90.484 12.5333 88.4827 14.5392 88.4827 17.0051V48.8375C88.4827 51.3033 90.484 53.3092 92.9443 53.3092C95.4046 53.3092 97.4059 51.3033 97.4059 48.8375V36.4827C97.4059 32.9309 99.0886 30.9697 102.154 30.9697C105.156 30.9697 106.737 32.8734 106.737 36.4827V48.8375C106.737 51.3033 108.738 53.3092 111.199 53.3092C113.659 53.3092 115.66 51.3033 115.66 48.8375V33.8891C115.654 26.9387 111.855 22.7864 105.488 22.7864ZM131.111 23.0037C127.478 23.0037 124.597 23.4764 121.773 24.5369C120.307 25.0863 119.326 26.5044 119.326 28.0632C119.326 30.1457 120.977 31.7747 123.086 31.7747C123.52 31.7747 123.883 31.7108 124.38 31.5447C126.095 31.0081 127.905 30.7526 129.925 30.7526C134.718 30.7526 135.738 33.4037 135.751 35.646C134.087 35.103 131.99 34.6047 129.065 34.6047C121.442 34.6047 117.069 38.099 117.069 44.1998V44.3084C117.069 49.8214 121.2 53.5266 127.344 53.5266C130.805 53.5266 133.578 52.4725 135.789 50.3133C136.165 51.8912 137.676 53.3157 139.996 53.3157C142.437 53.3157 144.349 51.4248 144.349 49.0101V35.8312C144.349 31.6853 143.266 28.4912 141.118 26.3447C138.9 24.128 135.534 23.0037 131.111 23.0037ZM129.817 47.1192C127.287 47.1192 125.719 45.9182 125.719 43.9826V43.874C125.719 41.5678 127.644 40.2519 131.003 40.2519C132.723 40.2519 134.438 40.5904 135.859 41.2037V42.4238C135.859 45.1836 133.374 47.1192 129.817 47.1192ZM156.306 26.8433C158.613 24.1155 161.456 22.7867 164.974 22.7867C171.686 22.7867 178.474 28.0442 178.474 38.0993V38.2079C178.474 42.8393 177.053 46.7617 174.369 49.5597C171.915 52.1214 168.582 53.5268 164.974 53.5268C161.501 53.5268 158.741 52.3386 156.351 49.8089V57.4747C156.351 59.9405 154.349 61.9464 151.889 61.9464C149.429 61.9464 147.427 59.9405 147.427 57.4747V27.4757C147.427 25.0098 149.429 23.0039 151.889 23.0039C154.139 23.0039 156 24.6777 156.306 26.8433ZM169.557 38.0993C169.557 33.7617 166.683 30.4845 162.871 30.4845C159.034 30.4845 156.242 33.685 156.242 38.0993V38.2079C156.242 42.6221 159.028 45.8226 162.871 45.8226C166.746 45.8226 169.557 42.6221 169.557 38.2079V38.0993ZM198.08 22.7867C194.561 22.7867 191.719 24.1155 189.411 26.8433C189.105 24.6777 187.244 23.0039 184.994 23.0039C182.534 23.0039 180.533 25.0098 180.533 27.4757V57.4747C180.533 59.9405 182.534 61.9464 184.994 61.9464C187.455 61.9464 189.456 59.9405 189.456 57.4747V49.8089C191.846 52.3386 194.606 53.5268 198.08 53.5268C201.687 53.5268 205.021 52.1214 207.475 49.5597C210.158 46.7617 211.579 42.8393 211.579 38.2079V38.0993C211.579 28.0442 204.791 22.7867 198.08 22.7867ZM195.976 30.4845C199.788 30.4845 202.662 33.7617 202.662 38.0993V38.2079C202.662 42.6221 199.852 45.8226 195.976 45.8226C192.133 45.8226 189.348 42.6221 189.348 38.2079V38.0993C189.348 33.685 192.139 30.4845 195.976 30.4845ZM231.485 26.3768C232.313 24.1664 233.792 23.0038 235.761 23.0038C238.139 23.0038 240.006 24.8244 240 27.137C240 27.8077 239.783 28.7787 239.592 29.2259L229.528 53.45C226.998 59.589 224.359 61.7674 219.445 61.7674C217.711 61.7674 216.379 61.5374 214.849 60.9881C213.797 60.6048 212.026 59.6082 212.026 57.2446C212.026 54.9193 213.855 53.533 215.62 53.533C216.321 53.533 216.742 53.6544 217.08 53.7694C217.775 53.9866 218.157 54.076 218.686 54.076C220.025 54.076 220.586 53.8588 221.261 52.562L221.465 52.0765L211.675 29.3409C211.452 28.7787 211.216 27.9099 211.216 27.303C211.216 24.85 213.109 22.9974 215.62 22.9974C217.692 22.9974 219.094 24.0834 219.897 26.3193L225.793 42.2067L231.485 26.3768Z" fill="white"/>
<path d="M63.9739 18.7786V44.9078C63.9739 55.2784 55.5339 63.6863 45.1237 63.6863H43.217L33.4805 73.3795C33.0992 73.7594 32.5717 74 31.987 74C31.4467 74 30.9574 73.8037 30.5824 73.4745L30.4172 73.3099L30.4108 73.3036L20.7569 63.6863H18.8439C8.44003 63.6863 0 55.2784 0 44.9078V18.7786C0 8.40794 8.44003 0 18.8503 0H45.1237C55.5339 0 63.9739 8.40794 63.9739 18.7786Z" fill="#F4AA24"/>
<g clip-path="url(#clip0)">
<path d="M43.5445 13.7757C42.5715 12.1914 41.0795 11.218 39.3434 11.0348C37.8775 10.88 36.4246 11.3188 35.2515 12.27C33.7216 13.5104 32.74 15.5384 32.4875 17.9801C32.2705 20.0797 32.618 22.1456 33.4662 23.7975C34.4232 25.6613 35.9635 26.835 37.6923 27.0175C37.858 27.0349 38.0234 27.0437 38.1883 27.0437C39.3369 27.0437 40.4603 26.6216 41.4641 25.8077C43.1666 24.4272 44.348 22.0085 44.6241 19.3377C44.8443 17.2075 44.471 15.2842 43.5445 13.7757ZM41.2829 18.9923C41.0992 20.7683 40.358 22.3801 39.3486 23.1987C38.9025 23.5604 38.4639 23.7214 38.045 23.6771C36.7518 23.5406 35.5293 21.223 35.8288 18.3256C35.9889 16.7777 36.5351 15.5537 37.367 14.8792C37.7904 14.5359 38.3061 14.363 38.8055 14.363C40.485 14.4469 41.5422 16.4846 41.2829 18.9923ZM38.9734 38.3799C38.1155 37.2359 37.5957 35.8502 37.093 34.5102C36.6105 33.2241 36.1549 32.0093 35.4143 31.0223C34.4365 29.7193 33.1194 29.0586 31.4996 29.0586C29.8799 29.0586 28.5628 29.7193 27.585 31.0223C26.8444 32.0092 26.3887 33.2241 25.9063 34.5102C25.4036 35.8502 24.8838 37.2359 24.0258 38.3799C23.2318 39.4386 22.2182 40.4838 21.2379 41.4946C19.0441 43.7567 16.9719 45.8934 16.9719 48.457C16.9719 49.9885 17.4453 51.2288 18.3789 52.1433C20.4 54.1231 23.9536 54.0495 28.4528 53.9567C29.437 53.9363 30.4547 53.9153 31.4996 53.9153C32.5445 53.9153 33.5622 53.9363 34.5465 53.9567C35.4665 53.9756 36.3462 53.9939 37.1821 53.9939C40.4341 53.9939 43.0125 53.7183 44.6204 52.1433C45.554 51.2287 46.0274 49.9885 46.0274 48.457C46.0274 45.8934 43.9552 43.7567 41.7613 41.4946C40.7811 40.4838 39.7675 39.4386 38.9734 38.3799ZM42.2699 49.7438C41.2572 50.7357 38.0312 50.669 34.616 50.5984C33.6146 50.5778 32.5792 50.5563 31.4996 50.5563C30.4201 50.5563 29.3846 50.5778 28.3833 50.5984C24.968 50.669 21.742 50.7356 20.7294 49.7438C20.5583 49.5762 20.3308 49.2605 20.3308 48.457C20.3308 47.2548 22.0177 45.5152 23.6492 43.833C24.7023 42.7471 25.7912 41.6243 26.713 40.3952C27.8597 38.8662 28.4927 37.1787 29.0512 35.6898C30.0171 33.1148 30.4306 32.4176 31.4996 32.4176C32.5685 32.4176 32.982 33.1149 33.9479 35.6898C34.5064 37.1786 35.1394 38.8662 36.2862 40.3952C37.208 41.6242 38.2969 42.747 39.3499 43.833C40.9813 45.5152 42.6683 47.2547 42.6683 48.457C42.6684 49.2604 42.441 49.5762 42.2699 49.7438ZM52.7061 28.6131C52.1908 26.9302 51.04 25.666 49.4656 25.0531C47.8913 24.4403 46.1886 24.5936 44.6709 25.485C43.2134 26.341 42.0494 27.8042 41.3048 29.7164C40.5723 31.5975 40.3797 33.5831 40.7625 35.3077C41.1931 37.2472 42.3403 38.7101 43.9099 39.3211C44.4585 39.5347 45.026 39.6366 45.5978 39.6366C48.2466 39.6366 50.9847 37.4466 52.3244 34.0065C53.069 32.0943 53.2011 30.2293 52.7061 28.6131ZM49.1943 32.7877C48.2293 35.2657 46.2518 36.6283 45.1285 36.1909C44.4341 35.9206 44.1495 35.0654 44.0418 34.5797C43.8051 33.5131 43.9483 32.1848 44.4349 30.9352C45.1365 29.1334 46.3395 28.0473 47.5309 28.0473C47.7715 28.0473 48.0116 28.0917 48.2471 28.1833C49.0114 28.4808 49.3472 29.1161 49.4944 29.5966C49.7619 30.4704 49.6554 31.6037 49.1943 32.7877ZM21.7885 25.8078C22.7922 26.6217 23.9155 27.0437 25.0643 27.0437C25.2291 27.0437 25.3946 27.0349 25.5602 27.0175C27.2889 26.835 28.8293 25.6613 29.7863 23.7975C30.6345 22.1456 30.982 20.0796 30.7649 17.98C30.5125 15.5384 29.5309 13.5104 28.001 12.27C26.8278 11.3188 25.3746 10.8804 23.9092 11.0348C22.1731 11.2181 20.6811 12.1914 19.7081 13.7757C18.7816 15.2842 18.4082 17.2075 18.6285 19.3378C18.9047 22.0086 20.086 24.4273 21.7885 25.8078ZM24.4457 14.363C24.9451 14.363 25.4621 14.536 25.8855 14.8791C26.7174 15.5537 27.2637 16.7776 27.4237 18.3256C27.7233 21.2229 26.5008 23.5405 25.2076 23.6771C24.7889 23.7217 24.3501 23.5604 23.9041 23.1988C22.8946 22.3802 22.1533 20.7684 21.9697 18.9924C21.7104 16.4846 22.7662 14.363 24.4457 14.363ZM21.2594 36.5137C21.9821 34.8951 22.1911 32.9042 21.848 30.9076C21.4993 28.8783 20.6481 27.2065 19.3864 26.0726C18.0736 24.8925 16.4308 24.4004 14.7607 24.6864C13.0902 24.9726 11.7053 25.9839 10.8611 27.534C10.0501 29.0233 9.8057 30.8833 10.1544 32.9128C10.8561 36.996 13.5913 39.8926 16.5773 39.8926C16.8368 39.8926 17.0985 39.8706 17.3607 39.8257C19.026 39.5404 20.4471 38.3332 21.2594 36.5137ZM13.465 32.3438C13.2487 31.0851 13.3716 29.9475 13.8111 29.1405C14.0532 28.696 14.5128 28.1368 15.3279 27.9972C15.4435 27.9774 15.5578 27.9677 15.6709 27.9677C17.0202 27.9677 18.1722 29.3503 18.5376 31.4765C18.7659 32.8047 18.6401 34.1416 18.1923 35.1443C17.9881 35.6016 17.5348 36.3879 16.7936 36.5149C15.5961 36.7206 13.9181 34.98 13.465 32.3438Z" fill="white"/>
</g>
<defs>
<clipPath id="clip0">
<rect width="43" height="43" fill="white" transform="translate(10 11)"/>
</clipPath>
</defs>
</svg>
